<?xml version="1.0" encoding="UTF-8"?>
<!DOCTYPE svg PUBLIC "-//W3C//DTD SVG 1.1//EN" "http://www.w3.org/Graphics/SVG/1.1/DTD/svg11.dtd">
<!-- Creator: CorelDRAW -->
<svg xmlns="http://www.w3.org/2000/svg" xml:space="preserve" width="4.2334mm" height="2.9104mm" version="1.1" shape-rendering="geometricPrecision" text-rendering="geometricPrecision" image-rendering="optimizeQuality" fill-rule="evenodd" clip-rule="evenodd"
viewBox="0 0 423.34 291.04"
 xmlns:xlink="http://www.w3.org/1999/xlink"
 xmlns:xodm="http://www.corel.com/coreldraw/odm/2003">
 <g id="Camada_x0020_1">
  <metadata id="CorelCorpID_0Corel-Layer"/>
  <path fill="#00A859" fill-rule="nonzero" d="M277.82 145.52c0,36.52 -29.62,66.14 -66.15,66.14 -36.52,0 -66.14,-29.62 -66.14,-66.14 0,-36.53 29.62,-66.15 66.14,-66.15 36.53,0 66.15,29.62 66.15,66.15z"/>
  <g>
   <path fill="#00A859" fill-rule="nonzero" d="M-0 145.52c0,0 79.38,-145.52 211.67,-145.52 132.29,0 211.67,145.52 211.67,145.52 0,0 -79.38,145.52 -211.67,145.52 -132.29,0 -211.67,-145.52 -211.67,-145.52l0 0zm211.67 92.6c51.13,-0.01 92.6,-41.48 92.6,-92.6 0,-51.13 -41.47,-92.6 -92.6,-92.6 -51.12,0 -92.59,41.47 -92.59,92.6 0,51.12 41.47,92.59 92.59,92.59l0 0.01zm0 0l0 0 0 0z"/>
  </g>
 </g>
</svg>
