<?xml version="1.0" encoding="UTF-8"?>
<!DOCTYPE svg PUBLIC "-//W3C//DTD SVG 1.1//EN" "http://www.w3.org/Graphics/SVG/1.1/DTD/svg11.dtd">
<!-- Creator: CorelDRAW -->
<svg xmlns="http://www.w3.org/2000/svg" xml:space="preserve" width="3.7041mm" height="1.5875mm" version="1.1" shape-rendering="geometricPrecision" text-rendering="geometricPrecision" image-rendering="optimizeQuality" fill-rule="evenodd" clip-rule="evenodd"
viewBox="0 0 370.42 158.75"
 xmlns:xlink="http://www.w3.org/1999/xlink"
 xmlns:xodm="http://www.corel.com/coreldraw/odm/2003">
 <g id="Camada_x0020_1">
  <metadata id="CorelCorpID_0Corel-Layer"/>
  <path fill="black" fill-rule="nonzero" d="M141.65 0l-62.28 0c-43.82,0 -79.37,35.55 -79.37,79.37 0,43.83 35.55,79.38 79.38,79.38l79.36 0c0.02,0 0.04,0 0.05,0 43.82,0 79.37,-35.55 79.37,-79.38 0,-9.01 -1.54,-17.96 -4.54,-26.45l-21.96 0c-2.29,0 -4.5,0.27 -6.62,0.82 4.34,7.84 6.63,16.66 6.63,25.63 0,29.22 -23.7,52.92 -52.91,52.92 0,0 -0.01,0 -0.01,0l-79.38 0.01c-29.21,-0.01 -52.91,-23.71 -52.91,-52.93 0,-29.21 23.7,-52.91 52.92,-52.91l40.6 0c5.77,-9.95 13.1,-18.89 21.7,-26.46l-0.03 0z"/>
  <path fill="black" fill-rule="nonzero" d="M211.67 0c-0.01,0 -0.03,0 -0.04,0 -43.82,0 -79.37,35.55 -79.37,79.37 0,9.01 1.54,17.97 4.54,26.46l29.04 0.01c-4.63,-8.05 -7.08,-17.19 -7.08,-26.47 0,-29.21 23.7,-52.91 52.91,-52.91l79.37 0c29.22,0 52.92,23.7 52.92,52.91 0,29.22 -23.7,52.92 -52.92,52.92l-40.61 0.01c-5.74,9.91 -13.09,18.87 -21.7,26.44l62.31 0.01c43.83,0 79.38,-35.55 79.38,-79.38 0,-43.82 -35.55,-79.37 -79.38,-79.37l-79.37 0z"/>
 </g>
</svg>
