<?xml version="1.0" encoding="UTF-8"?>
<!DOCTYPE svg PUBLIC "-//W3C//DTD SVG 1.1//EN" "http://www.w3.org/Graphics/SVG/1.1/DTD/svg11.dtd">
<!-- Creator: CorelDRAW -->
<svg xmlns="http://www.w3.org/2000/svg" xml:space="preserve" width="3.9689mm" height="4.2333mm" version="1.1" shape-rendering="geometricPrecision" text-rendering="geometricPrecision" image-rendering="optimizeQuality" fill-rule="evenodd" clip-rule="evenodd"
viewBox="0 0 372.09 396.88"
 xmlns:xlink="http://www.w3.org/1999/xlink"
 xmlns:xodm="http://www.corel.com/coreldraw/odm/2003">
 <g id="Camada_x0020_1">
  <metadata id="CorelCorpID_0Corel-Layer"/>
  <g>
   <path fill="#F7AF31" fill-rule="nonzero" d="M148.83 6.89c2.81,3.41 4.34,7.7 4.34,12.11 0,3.21 -0.81,6.36 -2.34,9.17 -14.28,26.21 -21.78,55.62 -21.78,85.47 0,0.11 0,0.24 0,0.35 0,99.74 81.31,180.51 181.52,180.51 13.09,-0.02 25.76,-1.34 38.02,-3.97 1.34,-0.29 2.72,-0.44 4.1,-0.44 6.36,0 12.32,3.08 15.99,8.27 2.22,3.08 3.41,6.78 3.41,10.58 0,4.23 -1.48,8.33 -4.18,11.57 -39.31,48.32 -98.34,76.36 -160.62,76.36 -0.1,0 -0.23,0 -0.33,0 -114.34,0.01 -206.97,-92.12 -206.97,-205.63 0,-85.44 52.44,-158.7 127.11,-189.76 2.31,-0.98 4.79,-1.48 7.28,-1.48 5.61,0 10.92,2.53 14.45,6.89l-0.01 0zm0 0l0 0 0 0z"/>
  </g>
 </g>
</svg>
