<?xml version="1.0" encoding="UTF-8"?>
<!DOCTYPE svg PUBLIC "-//W3C//DTD SVG 1.1//EN" "http://www.w3.org/Graphics/SVG/1.1/DTD/svg11.dtd">
<!-- Creator: CorelDRAW -->
<svg xmlns="http://www.w3.org/2000/svg" xml:space="preserve" width="3.3721mm" height="3.4669mm" version="1.1" shape-rendering="geometricPrecision" text-rendering="geometricPrecision" image-rendering="optimizeQuality" fill-rule="evenodd" clip-rule="evenodd"
viewBox="0 0 337.22 346.7"
 xmlns:xlink="http://www.w3.org/1999/xlink"
 xmlns:xodm="http://www.corel.com/coreldraw/odm/2003">
 <g id="Camada_x0020_1">
  <metadata id="CorelCorpID_0Corel-Layer"/>
  <path fill="#00AFEF" fill-rule="nonzero" d="M297.53 190.32c0.72,-5.42 1.08,-11.01 1.08,-16.97 0,-5.78 -0.36,-11.56 -1.26,-16.97l36.66 -28.53c2.03,-1.69 3.21,-4.19 3.21,-6.83 0,-1.46 -0.36,-2.9 -1.05,-4.18l-34.67 -59.95c-1.56,-2.77 -4.5,-4.49 -7.68,-4.49 -1.01,0 -2.02,0.18 -2.97,0.52l-43.16 17.33c-9.03,-6.86 -18.59,-12.64 -29.25,-16.97l-6.5 -45.86c-0.66,-4.26 -4.32,-7.41 -8.63,-7.41 -0.01,0 -0.02,0 -0.04,0l-69.33 0c-4.33,0 -7.76,3.07 -8.49,7.4l-6.5 45.86c-10.65,4.34 -20.41,10.29 -29.25,16.98l-43.15 -17.34c-3.98,-1.44 -8.49,0 -10.66,3.97l-34.47 59.97c-2.17,3.79 -1.45,8.48 2.17,11.01l36.65 28.53c-0.9,5.41 -1.62,11.37 -1.62,16.97 0,5.59 0.36,11.55 1.26,16.97l-36.66 28.53c-2.03,1.67 -3.21,4.18 -3.21,6.82 0,1.46 0.36,2.9 1.05,4.18l34.67 59.95c2.17,3.97 6.68,5.23 10.65,3.97l43.16 -17.33c9.03,6.85 18.59,12.63 29.25,16.97l6.5 45.86c0.9,4.33 4.33,7.4 8.67,7.4l69.32 0.02c4.33,0 7.94,-3.08 8.49,-7.41l6.5 -45.86c10.65,-4.33 20.41,-10.11 29.25,-16.97l43.16 17.33c3.97,1.45 8.49,0 10.65,-3.97l34.67 -59.94c2.17,-3.98 1.26,-8.49 -2.17,-11.02l-36.29 -28.52 -0.01 -0.01 0 -0.01zm-128.92 48.04c-35.75,0 -65,-29.25 -65,-65 0,-35.75 29.25,-65 65,-65 35.75,0 65,29.25 65,65 0,35.75 -29.25,65 -65,65z"/>
 </g>
</svg>
