<?xml version="1.0" encoding="UTF-8"?>
<!DOCTYPE svg PUBLIC "-//W3C//DTD SVG 1.1//EN" "http://www.w3.org/Graphics/SVG/1.1/DTD/svg11.dtd">
<!-- Creator: CorelDRAW -->
<svg xmlns="http://www.w3.org/2000/svg" xml:space="preserve" width="4.2333mm" height="4.2333mm" version="1.1" shape-rendering="geometricPrecision" text-rendering="geometricPrecision" image-rendering="optimizeQuality" fill-rule="evenodd" clip-rule="evenodd"
viewBox="0 0 423.34 423.34"
 xmlns:xlink="http://www.w3.org/1999/xlink"
 xmlns:xodm="http://www.corel.com/coreldraw/odm/2003">
 <g id="Camada_x0020_1">
  <metadata id="CorelCorpID_0Corel-Layer"/>
  <g>
   <path fill="#E7DC30" fill-rule="nonzero" d="M211.66 291.06c-43.82,-0.01 -79.37,-35.56 -79.37,-79.38 0,-43.83 35.55,-79.38 79.37,-79.38 43.83,0 79.38,35.55 79.38,79.38 0,43.82 -35.55,79.37 -79.38,79.37l0 0.01zm0 26.45c58.44,-0.01 105.83,-47.4 105.83,-105.83 0,-58.44 -47.39,-105.83 -105.83,-105.83 -58.43,0 -105.82,47.39 -105.82,105.83 0,58.43 47.39,105.82 105.82,105.82l0 0.01zm0 -317.51c7.31,0 13.23,5.92 13.23,13.23l0 52.92c0,7.31 -5.92,13.23 -13.23,13.23 -7.3,0 -13.22,-5.92 -13.22,-13.23l0 -52.92c0,-7.31 5.92,-13.23 13.22,-13.23l0 0zm0 343.97c7.31,-0.01 13.23,5.91 13.23,13.22l0 52.92c0,7.31 -5.92,13.23 -13.23,13.23 -7.3,0 -13.22,-5.92 -13.22,-13.23l0 -52.92c0,-7.31 5.92,-13.23 13.22,-13.23l0 0.01zm211.68 -132.29c0,7.3 -5.92,13.22 -13.23,13.22l-52.92 0.01c-7.31,-0.01 -13.23,-5.93 -13.23,-13.23 0,-7.31 5.92,-13.23 13.23,-13.23l52.92 0c7.31,0 13.23,5.92 13.23,13.23l0 0zm-343.97 0c0.01,7.3 -5.91,13.22 -13.22,13.22l-52.93 0.01c-7.3,-0.01 -13.22,-5.93 -13.22,-13.23 0,-7.31 5.92,-13.23 13.23,-13.23l52.91 0c7.32,0 13.24,5.92 13.24,13.23l-0.01 0zm281.97 -149.67c2.48,2.48 3.88,5.84 3.88,9.35 0,3.51 -1.4,6.87 -3.87,9.35l-37.41 37.44c-2.49,2.48 -5.85,3.87 -9.36,3.87 -7.31,0 -13.24,-5.93 -13.24,-13.24 0,-3.51 1.4,-6.89 3.88,-9.37l37.41 -37.41c2.49,-2.47 5.85,-3.87 9.36,-3.87 3.51,0 6.87,1.4 9.35,3.87l0 0.01zm-243.24 243.24c2.49,2.47 3.89,5.83 3.89,9.34 0,3.51 -1.4,6.87 -3.87,9.35l-37.43 37.42c-2.46,2.38 -5.75,3.71 -9.18,3.71 -7.31,0 -13.23,-5.92 -13.23,-13.23 0,-3.43 1.33,-6.72 3.71,-9.19l37.41 -37.41c2.49,-2.48 5.85,-3.88 9.36,-3.88 3.51,0 6.87,1.4 9.35,3.87l-0.01 0.02zm243.24 56.11c-2.48,2.47 -5.84,3.87 -9.35,3.87 -3.51,0 -6.87,-1.4 -9.35,-3.87l-37.41 -37.41c-2.39,-2.48 -3.72,-5.77 -3.72,-9.2 0,-7.31 5.92,-13.23 13.23,-13.23 3.43,0 6.72,1.33 9.19,3.71l37.41 37.41c2.48,2.49 3.88,5.85 3.88,9.36 0,3.51 -1.4,6.87 -3.87,9.35l-0.01 0.01zm-243.24 -243.21c-2.47,2.47 -5.83,3.87 -9.34,3.87 -3.51,0 -6.87,-1.4 -9.35,-3.87l-37.42 -37.44c-2.57,-2.48 -4.03,-5.92 -4.03,-9.51 0,-7.31 5.92,-13.23 13.23,-13.23 3.59,0 7.03,1.46 9.52,4.04l37.41 37.41c2.48,2.47 3.88,5.85 3.88,9.36 0,3.51 -1.4,6.89 -3.89,9.37l-0.01 0zm0 0l0 0 0 0z"/>
  </g>
 </g>
</svg>
