<?xml version="1.0" encoding="UTF-8"?>
<!DOCTYPE svg PUBLIC "-//W3C//DTD SVG 1.1//EN" "http://www.w3.org/Graphics/SVG/1.1/DTD/svg11.dtd">
<!-- Creator: CorelDRAW -->
<svg xmlns="http://www.w3.org/2000/svg" xml:space="preserve" width="4.7791mm" height="2.3657mm" version="1.1" shape-rendering="geometricPrecision" text-rendering="geometricPrecision" image-rendering="optimizeQuality" fill-rule="evenodd" clip-rule="evenodd"
viewBox="0 0 616.63 305.24"
 xmlns:xlink="http://www.w3.org/1999/xlink"
 xmlns:xodm="http://www.corel.com/coreldraw/odm/2003">
 <g id="Camada_x0020_1">
  <metadata id="CorelCorpID_0Corel-Layer"/>
  <path fill="black" fill-rule="nonzero" d="M182.76 0l-80.36 0c-56.54,0 -102.41,45.87 -102.41,102.41 0,56.55 45.87,102.42 102.42,102.42l102.39 0c0.03,0 0.05,0 0.06,0 56.54,0 102.41,-45.87 102.41,-102.42 0,-11.63 -1.99,-23.17 -5.86,-34.13l-28.33 0c-2.95,0 -5.81,0.35 -8.54,1.06 5.6,10.12 8.55,21.5 8.55,33.07 0,37.7 -30.58,68.28 -68.27,68.28 0,0 -0.01,0 -0.01,0l-102.42 0.01c-37.69,-0.01 -68.27,-30.59 -68.27,-68.29 0,-37.69 30.58,-68.27 68.28,-68.27l52.38 0c7.44,-12.84 16.9,-24.37 28,-34.14l-0.04 0z"/>
  <path fill="black" fill-rule="nonzero" d="M273.1 0c-0.01,0 -0.04,0 -0.05,0 -56.54,0 -102.41,45.87 -102.41,102.41 0,11.63 1.99,23.19 5.86,34.14l37.47 0.01c-5.97,-10.39 -9.13,-22.18 -9.13,-34.15 0,-37.69 30.58,-68.27 68.27,-68.27l102.41 0c37.7,0 68.28,30.58 68.28,68.27 0,37.7 -30.58,68.28 -68.28,68.28l-52.4 0.01c-7.41,12.79 -16.89,24.35 -28,34.11l80.4 0.01c56.55,0 102.42,-45.87 102.42,-102.42 0,-56.54 -45.87,-102.41 -102.42,-102.41l-102.41 0z"/>
  <ellipse fill="#FEFEFE" stroke="#FEFEFE" stroke-width="25.81" stroke-miterlimit="22.9256" cx="503.75" cy="198.47" rx="70.63" ry="68.34"/>
  <g id="_2509192932736">
   <path fill="#ED3237" fill-rule="nonzero" d="M505.97 305.24c61.09,-0.04 110.65,-49.58 110.65,-110.69 0,-61.11 -49.56,-110.65 -110.65,-110.65 -61.11,0 -110.68,49.55 -110.68,110.65 0,61.11 49.57,110.65 110.68,110.65l0 0.04zm-20.44 -153.49l20.44 20.46 20.41 -20.46c2.97,-2.99 7.01,-4.64 11.2,-4.64 8.74,0 15.83,7.07 15.83,15.82 0,4.21 -1.68,8.24 -4.64,11.21l-20.45 20.41 20.45 20.44c2.97,2.95 4.64,6.99 4.64,11.19 0,8.75 -7.1,15.83 -15.83,15.83 -4.19,0 -8.23,-1.66 -11.2,-4.63l-20.41 -20.46 -20.44 20.46c-2.97,2.97 -7.01,4.63 -11.19,4.63 -8.75,0 -15.84,-7.08 -15.84,-15.83 0,-4.19 1.68,-8.23 4.64,-11.19l20.45 -20.44 -20.45 -20.41c-2.97,-2.97 -4.64,-7.01 -4.64,-11.21 0,-8.75 7.1,-15.82 15.84,-15.82 4.18,0 8.22,1.65 11.19,4.63l0 0.01zm0 0l0 0 0 0z"/>
  </g>
 </g>
</svg>
